# xmcd
#
# Track frame offsets: 
#        150
#        14573
#        28130
#        40903
#        56275
#        70358
#        82700
#        95564
#        109587
#        122688
#        134210
#        144795
#        157999
#        168483
#        182366
#        195394
#        209700
#        223133
#        234619
#        247492
#        260005
#        274216
#        287065
#        298168
#
# Disc length: 4144 seconds
#
# Revision: 0
# Processed by: cddbd v1.5.2PL0 Copyright (c) Steve Scherf et al.
# Submitted via: ExactAudioCopyFreeDBPlugin 1.0
#
DISCID=76102e18
DTITLE=Various Artist - Rare Jazz and Blues Piano
DYEAR=1995
DGENRE=
TTITLE0="Talking" Billy Anderson - Lonely Billy Blues
TTITLE1="Talking" Billy Anderson - Adam and Eve
TTITLE2="Talking" Billy Anderson - Married Man Blues
TTITLE3="Talking" Billy Anderson - Cow Cow Blues
TTITLE4=Whistling Bob Howe and Frankie Griggs - The Coldest Stuff in Tow
TTITLE4=n
TTITLE5=Whistling Bob Howe and Frankie Griggs - The Hottest Stuff in Tow
TTITLE5=n
TTITLE6=Oliver Brown from New Orleans - Oh You Devil You
TTITLE7=Oliver Brown from New Orleans - I Ain't Got Nobody
TTITLE8=Billy Mitchell - Two Old Maids
TTITLE9=Billy Mitchell - In the Jailhouse Now
TTITLE10=Billy Mitchell - Looking for a Cherry
TTITLE11=Billy Mitchell - A Hole in One
TTITLE12=Billy Mitchell - Yum Yum Yum
TTITLE13=Billy Mitchell - I Never See Maggie Alone
TTITLE14=Old Ced Odom and Lil "Diamonds" Hardaway - Derbytown
TTITLE15=Old Ced Odom and Lil "Diamonds" Hardaway - Hotter Than Fire
TTITLE16=Old Ced Odom and Lil "Diamonds" Hardaway - Break 'Er Down
TTITLE17=Old Ced Odom and Lil "Diamonds" Hardaway - It's Your Yas Yas Ya
TTITLE17=s
TTITLE18=Old Ced Odom and Lil "Diamonds" Hardaway - What You Gonna Do?
TTITLE19=Old Ced Odom and Lil "Diamonds" Hardaway - Fore Day in the Morn
TTITLE19=ing
TTITLE20=Scottie Nesbitt - Troubled and Blue
TTITLE21=Scottie Nesbitt - Deep, Deep in the Ground
TTITLE22=Scottie Nesbitt - Sundown Blues
TTITLE23=Scottie Nesbitt - Some Old Lonesome Day "Walkin'"
EXTD=
EXTT0=
EXTT1=
EXTT2=
EXTT3=
EXTT4=
EXTT5=
EXTT6=
EXTT7=
EXTT8=
EXTT9=
EXTT10=
EXTT11=
EXTT12=
EXTT13=
EXTT14=
EXTT15=
EXTT16=
EXTT17=
EXTT18=
EXTT19=
EXTT20=
EXTT21=
EXTT22=
EXTT23=
PLAYORDER=
